<svg width="115" height="50" viewBox="0 0 115 50" xmlns="http://www.w3.org/2000/svg" style="image-rendering:pixelated;display:block" shape-rendering="crispEdges"><rect x="50" y="0" width="5" height="5" fill="#0A2020"></rect><rect x="55" y="0" width="5" height="5" fill="#0A2020"></rect><rect x="60" y="0" width="5" height="5" fill="#0A2020"></rect><rect x="65" y="0" width="5" height="5" fill="#0A2020"></rect><rect x="70" y="0" width="5" height="5" fill="#0A2020"></rect><rect x="75" y="0" width="5" height="5" fill="#0A2020"></rect><rect x="80" y="0" width="5" height="5" fill="#0A2020"></rect><rect x="45" y="5" width="5" height="5" fill="#0A2020"></rect><rect x="50" y="5" width="5" height="5" fill="#1A4040"></rect><rect x="55" y="5" width="5" height="5" fill="#5AAAC8"></rect><rect x="60" y="5" width="5" height="5" fill="#5AAAC8"></rect><rect x="65" y="5" width="5" height="5" fill="#80CCE0"></rect><rect x="70" y="5" width="5" height="5" fill="#5AAAC8"></rect><rect x="75" y="5" width="5" height="5" fill="#5AAAC8"></rect><rect x="80" y="5" width="5" height="5" fill="#1A4040"></rect><rect x="85" y="5" width="5" height="5" fill="#287A9A"></rect><rect x="90" y="5" width="5" height="5" fill="#0A2020"></rect><rect x="40" y="10" width="5" height="5" fill="#0A2020"></rect><rect x="45" y="10" width="5" height="5" fill="#1A4040"></rect><rect x="50" y="10" width="5" height="5" fill="#5AAAC8"></rect><rect x="55" y="10" width="5" height="5" fill="#80CCE0"></rect><rect x="60" y="10" width="5" height="5" fill="#5AAAC8"></rect><rect x="65" y="10" width="5" height="5" fill="#5AAAC8"></rect><rect x="70" y="10" width="5" height="5" fill="#0A0A0A"></rect><rect x="75" y="10" width="5" height="5" fill="#5AAAC8"></rect><rect x="80" y="10" width="5" height="5" fill="#5AAAC8"></rect><rect x="85" y="10" width="5" height="5" fill="#5AAAC8"></rect><rect x="90" y="10" width="5" height="5" fill="#1A4040"></rect><rect x="95" y="10" width="5" height="5" fill="#0A2020"></rect><rect x="30" y="15" width="5" height="5" fill="#0A2020"></rect><rect x="35" y="15" width="5" height="5" fill="#0A2020"></rect><rect x="40" y="15" width="5" height="5" fill="#1A4040"></rect><rect x="45" y="15" width="5" height="5" fill="#5AAAC8"></rect><rect x="50" y="15" width="5" height="5" fill="#5AAAC8"></rect><rect x="55" y="15" width="5" height="5" fill="#5AAAC8"></rect><rect x="60" y="15" width="5" height="5" fill="#5AAAC8"></rect><rect x="65" y="15" width="5" height="5" fill="#80CCE0"></rect><rect x="70" y="15" width="5" height="5" fill="#5AAAC8"></rect><rect x="75" y="15" width="5" height="5" fill="#5AAAC8"></rect><rect x="80" y="15" width="5" height="5" fill="#5AAAC8"></rect><rect x="85" y="15" width="5" height="5" fill="#5AAAC8"></rect><rect x="90" y="15" width="5" height="5" fill="#3A7A9A"></rect><rect x="95" y="15" width="5" height="5" fill="#1A4040"></rect><rect x="100" y="15" width="5" height="5" fill="#0A2020"></rect><rect x="25" y="20" width="5" height="5" fill="#0A2020"></rect><rect x="30" y="20" width="5" height="5" fill="#1A4040"></rect><rect x="35" y="20" width="5" height="5" fill="#1A4040"></rect><rect x="40" y="20" width="5" height="5" fill="#3A7A9A"></rect><rect x="45" y="20" width="5" height="5" fill="#5AAAC8"></rect><rect x="50" y="20" width="5" height="5" fill="#5AAAC8"></rect><rect x="55" y="20" width="5" height="5" fill="#5AAAC8"></rect><rect x="60" y="20" width="5" height="5" fill="#80CCE0"></rect><rect x="65" y="20" width="5" height="5" fill="#5AAAC8"></rect><rect x="70" y="20" width="5" height="5" fill="#5AAAC8"></rect><rect x="75" y="20" width="5" height="5" fill="#5AAAC8"></rect><rect x="80" y="20" width="5" height="5" fill="#5AAAC8"></rect><rect x="85" y="20" width="5" height="5" fill="#5AAAC8"></rect><rect x="90" y="20" width="5" height="5" fill="#3A7A9A"></rect><rect x="95" y="20" width="5" height="5" fill="#1A4040"></rect><rect x="100" y="20" width="5" height="5" fill="#0A2020"></rect><rect x="20" y="25" width="5" height="5" fill="#0A2020"></rect><rect x="25" y="25" width="5" height="5" fill="#1A4040"></rect><rect x="30" y="25" width="5" height="5" fill="#3A7A9A"></rect><rect x="35" y="25" width="5" height="5" fill="#3A7A9A"></rect><rect x="40" y="25" width="5" height="5" fill="#5AAAC8"></rect><rect x="45" y="25" width="5" height="5" fill="#5AAAC8"></rect><rect x="50" y="25" width="5" height="5" fill="#5AAAC8"></rect><rect x="55" y="25" width="5" height="5" fill="#5AAAC8"></rect><rect x="60" y="25" width="5" height="5" fill="#5AAAC8"></rect><rect x="65" y="25" width="5" height="5" fill="#5AAAC8"></rect><rect x="70" y="25" width="5" height="5" fill="#5AAAC8"></rect><rect x="75" y="25" width="5" height="5" fill="#5AAAC8"></rect><rect x="80" y="25" width="5" height="5" fill="#5AAAC8"></rect><rect x="85" y="25" width="5" height="5" fill="#5AAAC8"></rect><rect x="90" y="25" width="5" height="5" fill="#1A4040"></rect><rect x="95" y="25" width="5" height="5" fill="#0A2020"></rect><rect x="25" y="30" width="5" height="5" fill="#0A2020"></rect><rect x="30" y="30" width="5" height="5" fill="#1A4040"></rect><rect x="35" y="30" width="5" height="5" fill="#3A7A9A"></rect><rect x="40" y="30" width="5" height="5" fill="#5AAAC8"></rect><rect x="45" y="30" width="5" height="5" fill="#5AAAC8"></rect><rect x="50" y="30" width="5" height="5" fill="#5AAAC8"></rect><rect x="55" y="30" width="5" height="5" fill="#5AAAC8"></rect><rect x="60" y="30" width="5" height="5" fill="#5AAAC8"></rect><rect x="65" y="30" width="5" height="5" fill="#5AAAC8"></rect><rect x="70" y="30" width="5" height="5" fill="#5AAAC8"></rect><rect x="75" y="30" width="5" height="5" fill="#5AAAC8"></rect><rect x="80" y="30" width="5" height="5" fill="#1A4040"></rect><rect x="85" y="30" width="5" height="5" fill="#0A2020"></rect><rect x="30" y="35" width="5" height="5" fill="#0A2020"></rect><rect x="35" y="35" width="5" height="5" fill="#1A4040"></rect><rect x="40" y="35" width="5" height="5" fill="#1A4040"></rect><rect x="45" y="35" width="5" height="5" fill="#1A4040"></rect><rect x="50" y="35" width="5" height="5" fill="#1A4040"></rect><rect x="55" y="35" width="5" height="5" fill="#1A4040"></rect><rect x="60" y="35" width="5" height="5" fill="#1A4040"></rect><rect x="65" y="35" width="5" height="5" fill="#1A4040"></rect><rect x="70" y="35" width="5" height="5" fill="#1A4040"></rect><rect x="75" y="35" width="5" height="5" fill="#1A4040"></rect><rect x="80" y="35" width="5" height="5" fill="#0A2020"></rect><rect x="35" y="40" width="5" height="5" fill="#0A2020"></rect><rect x="40" y="40" width="5" height="5" fill="#1A4040"></rect><rect x="45" y="40" width="5" height="5" fill="#0A2020"></rect><rect x="65" y="40" width="5" height="5" fill="#0A2020"></rect><rect x="70" y="40" width="5" height="5" fill="#1A4040"></rect><rect x="75" y="40" width="5" height="5" fill="#0A2020"></rect><rect x="35" y="45" width="5" height="5" fill="#0A2020"></rect><rect x="40" y="45" width="5" height="5" fill="#0A2020"></rect><rect x="70" y="45" width="5" height="5" fill="#0A2020"></rect><rect x="75" y="45" width="5" height="5" fill="#0A2020"></rect></svg>